HIERARCHY
ROOT Hips
{
	OFFSET 0.00 0.00 0.00
	CHANNELS 6 Xposition Yposition Zposition Xrotation Yrotation Zrotation
	JOINT LeftUpLeg
	{
		OFFSET 3.25772 0.00000 0.00000
		CHANNELS 3 Xrotation Yrotation Zrotation
		JOINT LeftLeg
		{
			OFFSET 0.00000 -15.35355 0.00000
			CHANNELS 3 Xrotation Yrotation Zrotation
			JOINT LeftFoot
			{
				OFFSET 0.00000 -16.48949 0.00000
				CHANNELS 3 Xrotation Yrotation Zrotation
				JOINT LeftToeBase
				{
					OFFSET 0.00000 -1.72224 6.42750
					CHANNELS 3 Xrotation Yrotation Zrotation
					End Site
					{
						OFFSET 0.00000 0.00000 2.95275
					}
				}
			}
		}
	}
	JOINT RightUpLeg
	{
		OFFSET -3.25772 0.00000 0.00000
		CHANNELS 3 Xrotation Yrotation Zrotation
		JOINT RightLeg
		{
			OFFSET 0.00000 -15.35355 0.00000
			CHANNELS 3 Xrotation Yrotation Zrotation
			JOINT RightFoot
			{
				OFFSET 0.00000 -16.48949 0.00000
				CHANNELS 3 Xrotation Yrotation Zrotation
				JOINT RightToeBase
				{
					OFFSET 0.00000 -1.72224 6.42750
					CHANNELS 3 Xrotation Yrotation Zrotation
					End Site
					{
						OFFSET 0.00000 0.00000 2.95275
					}
				}
			}
		}
	}
	JOINT Spine
	{
		OFFSET 0.00000 0.03937 0.00000
		CHANNELS 3 Xrotation Yrotation Zrotation
		JOINT Spine1
		{
			OFFSET 0.00000 10.14986 0.00000
			CHANNELS 3 Xrotation Yrotation Zrotation
			JOINT Neck
			{
				OFFSET 0.00000 9.84250 0.00000
				CHANNELS 3 Xrotation Yrotation Zrotation
				JOINT Head
				{
					OFFSET 0.00000 4.54023 0.00000
					CHANNELS 3 Xrotation Yrotation Zrotation
					End Site
					{
						OFFSET 0.00000 4.52755 0.00000
					}
				}
			}
			JOINT LeftShoulder
			{
				OFFSET 0.00000 9.84250 0.00000
				CHANNELS 3 Xrotation Yrotation Zrotation
				JOINT LeftArm
				{
					OFFSET 7.21510 -0.00003 0.00000
					CHANNELS 3 Xrotation Yrotation Zrotation
					JOINT LeftForeArm
					{
						OFFSET 10.66411 -0.00004 0.00000
						CHANNELS 3 Xrotation Yrotation Zrotation
						JOINT LeftHand
						{
							OFFSET 8.93656 -0.00003 0.00000
							CHANNELS 3 Xrotation Yrotation Zrotation
							JOINT L_Wrist_End
							{
								OFFSET 3.93700 -0.00001 0.00000
								CHANNELS 3 Xrotation Yrotation Zrotation
							}
						}
					}
				}
			}
			JOINT RightShoulder
			{
				OFFSET 0.00000 9.84250 0.00000
				CHANNELS 3 Xrotation Yrotation Zrotation
				JOINT RightArm
				{
					OFFSET -7.21510 -0.00003 0.00000
					CHANNELS 3 Xrotation Yrotation Zrotation
					JOINT RightForeArm
					{
						OFFSET -10.66411 -0.00004 0.00000
						CHANNELS 3 Xrotation Yrotation Zrotation
						JOINT RightHand
						{
							OFFSET -8.93656 -0.00003 0.00000
							CHANNELS 3 Xrotation Yrotation Zrotation
							JOINT R_Wrist_End
							{
								OFFSET -5.41338 -0.00002 0.00000
								CHANNELS 3 Xrotation Yrotation Zrotation
							}
						}
					}
				}
			}
		}
	}
}
MOTION
Frames: 7
Frame Time: 0.008333
 -0.2195 33.9618 1.9165 -1.0920 0.3737 -1.7967 3.9018 24.9312 7.6695 3.6972 -0.0000 0.0000 -1.6751 -1.2293 0.7435 -34.5342 0.0000 -0.0000 5.9579 6.9829 0.8229 3.9158 -0.0000 0.0000 -1.4654 -10.7272 -0.3335 -31.9156 0.0000 -0.0000 -15.8586 -1.8809 -3.8626 27.5639 3.9695 4.4534 -22.4352 -17.3465 8.9624 -8.0260 -6.5940 -18.3823 9.1586 9.5446 15.9598 -22.0691 13.6640 -31.8347 -0.0000 -10.2814 -0.0000 -4.8141 2.0808 21.9386 -0.0000 -0.0000 0.0000 7.5202 -6.5602 -15.6544 -13.2931 -4.2431 24.2424 -0.0001 20.2178 0.0000 -20.2360 -13.0036 -18.1925 -0.0000 0.0000 -0.0000
 -0.2168 33.9681 1.9203 -1.0759 0.3957 -1.7759 3.9423 24.9570 7.6236 3.6190 -0.0000 0.0000 -1.5647 -1.2637 0.8101 -34.6033 0.0000 -0.0000 5.9559 6.9657 0.8043 3.8862 -0.0000 0.0000 -1.3563 -10.7154 -0.3173 -32.0081 0.0000 0.0000 -15.8620 -1.8977 -3.8857 27.5559 3.9618 4.4654 -23.0250 -17.6759 9.0592 -7.1743 -6.3474 -18.7976 9.1103 9.4983 15.9012 -22.1393 13.7712 -31.7660 -0.0000 -10.3672 -0.0000 -4.5878 2.2907 22.0207 -0.0000 0.0000 -0.0000 7.5437 -6.5517 -15.6082 -13.3579 -4.3020 24.1892 -0.0001 20.2975 0.0000 -20.2169 -13.0424 -18.2033 -0.0000 0.0000 -0.0000
 -0.2147 33.9687 1.9189 -1.0630 0.4066 -1.7489 3.9340 24.9431 7.5911 3.6332 -0.0000 -0.0000 -1.5648 -1.2718 0.8363 -34.5894 0.0000 -0.0000 5.9431 6.9746 0.7764 3.8903 -0.0000 0.0000 -1.3781 -10.7517 -0.2982 -31.9556 0.0000 -0.0000 -15.8067 -1.9122 -3.9118 27.4776 3.9525 4.4640 -23.4014 -17.9753 8.9812 -6.5872 -6.1311 -18.8166 9.0953 9.5403 15.8657 -22.1201 13.7322 -31.7586 -0.0000 -10.4229 -0.0000 -4.6886 2.2803 21.9228 -0.0000 -0.0000 0.0000 7.4853 -6.5506 -15.5941 -13.3452 -4.3164 24.1905 -0.0001 20.3403 0.0000 -20.1421 -13.0585 -18.1934 -0.0000 0.0000 -0.0000
 -0.2160 33.9684 1.9205 -1.0601 0.3951 -1.7477 3.9396 24.8851 7.5932 3.6390 0.0000 0.0000 -1.5258 -1.2204 0.8402 -34.6865 0.0000 -0.0000 5.9461 6.9564 0.7792 3.8803 -0.0000 0.0000 -1.3860 -10.7133 -0.3426 -31.9427 0.0000 -0.0000 -15.8044 -1.9052 -3.9163 27.4564 3.9590 4.4604 -23.4257 -18.0248 8.9409 -6.4773 -6.0857 -18.7584 9.1135 9.5382 15.8431 -22.1487 13.7096 -31.7328 -0.0000 -10.4441 -0.0000 -4.6673 2.3253 22.0042 -0.0000 -0.0000 0.0000 7.5025 -6.5345 -15.5826 -13.2889 -4.2814 24.1860 -0.0001 20.2574 0.0000 -20.1994 -12.9829 -18.2381 -0.0000 -0.0000 0.0000
 -0.2119 33.9677 1.9224 -1.0560 0.3917 -1.7459 3.9434 24.9256 7.5793 3.6256 -0.0000 -0.0000 -1.5379 -1.2439 0.8437 -34.6602 0.0000 0.0000 5.9457 6.9670 0.7691 3.8859 -0.0000 0.0000 -1.3772 -10.7310 -0.3120 -31.9572 0.0000 -0.0000 -15.7962 -1.9112 -3.9120 27.4450 3.9547 4.4657 -23.4456 -18.0746 8.8933 -6.4356 -6.0507 -18.7104 9.1237 9.5350 15.8384 -22.0726 13.6734 -31.7763 -0.0000 -10.4476 -0.0000 -4.5827 2.3253 22.0863 -0.0000 0.0000 -0.0000 7.5278 -6.5501 -15.5746 -13.3349 -4.2864 24.1643 -0.0001 20.2925 0.0000 -20.2362 -13.0321 -18.1753 -0.0000 -0.0000 0.0000
 -0.2125 33.9677 1.9220 -1.0544 0.3897 -1.7460 3.9479 24.9024 7.5801 3.6221 -0.0000 -0.0000 -1.5669 -1.2335 0.8258 -34.6088 0.0000 0.0000 5.9455 6.9780 0.7650 3.8804 0.0000 0.0000 -1.3703 -10.7051 -0.3345 -31.9803 0.0000 0.0000 -15.7941 -1.9142 -3.9144 27.4427 3.9510 4.4644 -23.4429 -18.0887 8.8801 -6.3786 -6.0323 -18.6930 9.1567 9.5285 15.8315 -22.0720 13.6638 -31.7827 -0.0000 -10.4509 -0.0000 -4.5793 2.3670 22.1494 -0.0000 0.0000 -0.0000 7.5014 -6.5438 -15.5736 -13.3222 -4.2695 24.1684 -0.0001 20.2952 0.0000 -20.1838 -13.0684 -18.1623 -0.0000 -0.0000 0.0000
 -0.2138 33.9669 1.9223 -1.0520 0.3829 -1.7422 3.9500 24.9131 7.5728 3.6185 0.0000 0.0000 -1.5499 -1.2162 0.7925 -34.6350 0.0000 0.0000 5.9393 7.0139 0.7644 3.8845 -0.0000 0.0000 -1.3994 -10.7422 -0.3247 -31.9461 0.0000 0.0000 -15.7908 -1.9203 -3.9166 27.4359 3.9434 4.4630 -23.4701 -18.1451 8.8179 -6.3063 -5.9762 -18.6339 9.1730 9.5119 15.8299 -22.0018 13.6465 -31.7921 -0.0000 -10.4273 -0.0000 -4.6556 2.2845 22.0889 -0.0000 -0.0000 0.0000 7.5026 -6.5419 -15.5860 -13.2779 -4.2343 24.1747 -0.0001 20.3164 0.0000 -20.2717 -13.1367 -18.1880 -0.0000 -0.0000 0.0000
